<mxfile host="app.diagrams.net" modified="2023-12-18T13:41:22.969Z" agent="Mozilla/5.0 (Windows NT 10.0; Win64; x64) AppleWebKit/537.36 (KHTML, like Gecko) Chrome/119.0.0.0 Safari/537.36 Edg/119.0.0.0" version="22.1.11" etag="q67M5rp1B8gETukCDmi8" type="github">
  <diagram name="Page-1" id="vF6iZqmWWt3p99M_hXda">
    <mxGraphModel>
      <root>
        <mxCell id="0" />
        <mxCell id="1" parent="0" />
      </root>
    </mxGraphModel>
  </diagram>
</mxfile>
